<svg xmlns="http://www.w3.org/2000/svg" viewBox="0 0 512 512" role="img" aria-label="Judo Child League">
  <defs>
    <linearGradient id="gold" x1="92" y1="60" x2="414" y2="440" gradientUnits="userSpaceOnUse">
      <stop offset="0" stop-color="#fff0a8"/>
      <stop offset="0.28" stop-color="#f4c23f"/>
      <stop offset="0.58" stop-color="#b77808"/>
      <stop offset="1" stop-color="#ffd96b"/>
    </linearGradient>
    <filter id="shadow" x="-20%" y="-20%" width="140%" height="140%">
      <feDropShadow dx="0" dy="12" stdDeviation="13" flood-color="#4f3000" flood-opacity="0.35"/>
    </filter>
  </defs>
  <rect width="512" height="512" rx="92" fill="#fffdf8"/>
  <path
    d="M139 181v-26c0-33 27-60 60-60h178c33 0 60 27 60 60v198c0 33-27 60-60 60H135"
    fill="none"
    stroke="url(#gold)"
    stroke-width="28"
    stroke-linecap="round"
    filter="url(#shadow)"
  />
  <text
    x="256"
    y="292"
    text-anchor="middle"
    font-family="Arial Black, Impact, sans-serif"
    font-size="154"
    font-weight="900"
    font-style="italic"
    fill="url(#gold)"
    stroke="#7a4700"
    stroke-width="4"
    filter="url(#shadow)"
  >JCL</text>
  <path
    d="M112 330c75-20 130-20 191 0 48 16 83 16 123 0"
    fill="none"
    stroke="#f8f5ec"
    stroke-width="44"
    stroke-linecap="round"
  />
  <path
    d="M112 330c75-20 130-20 191 0 48 16 83 16 123 0"
    fill="none"
    stroke="url(#gold)"
    stroke-width="8"
    stroke-linecap="round"
  />
  <circle cx="256" cy="331" r="33" fill="#f8f5ec" stroke="url(#gold)" stroke-width="9"/>
</svg>
